<?xml version="1.0" encoding="UTF-8"?>
<svg width="32px" height="32px" viewBox="0 0 32 32" version="1.1" xmlns="http://www.w3.org/2000/svg" xmlns:xlink="http://www.w3.org/1999/xlink">
    <!-- Generator: Sketch 44.1 (41455) - http://www.bohemiancoding.com/sketch -->
    <title>icon-rss</title>
    <desc>Created with Sketch.</desc>
    <defs></defs>
    <g id="Symbols" stroke="none" stroke-width="1" fill="none" fill-rule="evenodd">
        <g id="contents/footer2-dark" transform="translate(-38.000000, -275.000000)">
            <g id="Group-14" transform="translate(40.000000, 277.000000)">
                <g id="Group-10">
                    <g id="Group-43" transform="translate(8.000000, 8.000000)" fill="#FFFFFF">
                        <path d="M0,0 L0,2.296875 C1.750008,2.296875 3.3710865,2.730465 4.863282,3.597657 C6.355476,4.4648475 7.5351525,5.644524 8.402343,7.136718 C9.269535,8.6289135 9.703125,10.249992 9.703125,12 L12,12 C12,10.3749915 11.6835975,8.8203195 11.050782,7.3359375 C10.417965,5.8515555 9.566412,4.5742245 8.496093,3.503907 C7.4257755,2.433588 6.1484445,1.582035 4.6640625,0.949218 C3.1796805,0.3164025 1.6250085,0 0,0 Z M5.6015625,12 L7.921875,12 C7.921875,10.5624928 7.5664095,9.238287 6.855468,8.027343 C6.144528,6.8164005 5.1835995,5.855472 3.972657,5.144532 C2.761713,4.4335905 1.43750715,4.078125 0,4.078125 L0,6.375 C1.5468825,6.375 2.8671825,6.92187 3.9609375,8.015625 C5.0546925,9.10938 5.6015625,10.437492 5.6015625,12 Z M1.59375,11.9765625 C2.031252,11.9765625 2.406249,11.8242202 2.71875,11.5195312 C3.031251,11.2148422 3.1875,10.839846 3.1875,10.394532 C3.1875,9.9492165 3.031251,9.5703135 2.71875,9.2578125 C2.406249,8.9453115 2.031252,8.7890625 1.59375,8.7890625 C1.15624785,8.7890625 0.7812516,8.9453115 0.46875,9.2578125 C0.1562484,9.5703135 0,9.9492165 0,10.394532 C0,10.839846 0.1562484,11.2148422 0.46875,11.5195312 C0.7812516,11.8242202 1.15624785,11.9765625 1.59375,11.9765625 Z" id="Page-1"></path>
                    </g>
                    <circle id="Oval-3" stroke="#FFFFFF" opacity="0.560000002" cx="14" cy="14" r="14"></circle>
                </g>
            </g>
        </g>
    </g>
</svg>