<?xml version="1.0" encoding="UTF-8"?>
<svg width="32px" height="32px" viewBox="0 0 32 32" version="1.1" xmlns="http://www.w3.org/2000/svg" xmlns:xlink="http://www.w3.org/1999/xlink">
    <!-- Generator: Sketch 44.1 (41455) - http://www.bohemiancoding.com/sketch -->
    <title>icon-youtube</title>
    <desc>Created with Sketch.</desc>
    <defs></defs>
    <g id="Symbols" stroke="none" stroke-width="1" fill="none" fill-rule="evenodd">
        <g id="contents/footer2-dark" transform="translate(-74.000000, -275.000000)">
            <g id="Group-14" transform="translate(40.000000, 277.000000)">
                <g id="Group-11" transform="translate(36.000000, 0.000000)">
                    <path d="M19.2916672,8.67589962 C15.4397952,8.4129565 11.9768672,8.4129565 8.90277826,8.67589962 C8.42129435,8.73224432 8.01389097,9.00457402 7.68055604,9.49289773 C7.34722111,9.98122144 7.15277855,10.4883183 7.09722271,11.0142045 C6.96759243,12.742117 6.96759243,14.4700042 7.09722271,16.1979167 C7.15277855,16.7238029 7.34722111,17.2309003 7.68055604,17.7192235 C8.01389097,18.2075467 8.42129435,18.4892673 8.90277826,18.5643939 C12.6435374,18.8085554 16.1064654,18.8085554 19.2916672,18.5643939 C19.7731516,18.4704856 20.1805543,18.1793743 20.5138894,17.6910511 C20.8472245,17.202728 21.0416672,16.7050207 21.0972227,16.1979167 C21.2268529,14.4324399 21.2268529,12.6576 21.0972227,10.8733428 C21.0416672,10.3286744 20.8611125,9.83096771 20.5555552,9.38020833 C20.2499996,8.92944895 19.8287072,8.69468179 19.2916672,8.67589962 Z M12.3194449,16.1697443 L12.3194449,10.9860322 L16.7638894,13.5778883 L12.3194449,16.1697443 Z" id="Page-1" fill="#FFFFFF"></path>
                    <circle id="Oval-3" stroke="#FFFFFF" opacity="0.560000002" cx="14" cy="14" r="14"></circle>
                </g>
            </g>
        </g>
    </g>
</svg>